<?xml version="1.0" encoding="UTF-8"?>
<svg id="Layer_2" data-name="Layer 2" xmlns="http://www.w3.org/2000/svg" xmlns:xlink="http://www.w3.org/1999/xlink" viewBox="0 0 198.78 25.71">
  <defs>
    <style>
      .cls-1 {
        fill: url(#linear-gradient-2);
      }

      .cls-2 {
        fill: #fff;
      }

      .cls-3 {
        fill: url(#linear-gradient-4);
      }

      .cls-4 {
        fill: url(#linear-gradient-3);
      }

      .cls-5 {
        fill: url(#linear-gradient-5);
      }

      .cls-6 {
        fill: url(#linear-gradient-7);
      }

      .cls-7 {
        fill: url(#linear-gradient-6);
      }

      .cls-8 {
        fill: url(#linear-gradient);
      }
    </style>
    <linearGradient id="linear-gradient" x1="0" y1="12.86" x2="42.81" y2="12.86" gradientUnits="userSpaceOnUse">
      <stop offset="0" stop-color="#03a6f4"/>
      <stop offset="1" stop-color="#6e3cfc"/>
    </linearGradient>
    <linearGradient id="linear-gradient-2" x1="149.79" y1="13.87" x2="159.17" y2="13.87" gradientUnits="userSpaceOnUse">
      <stop offset="0" stop-color="#04a7f4"/>
      <stop offset="1" stop-color="#6e3dfc"/>
    </linearGradient>
    <linearGradient id="linear-gradient-3" x1="159.96" y1="14.4" x2="166.07" y2="14.4" xlink:href="#linear-gradient-2"/>
    <linearGradient id="linear-gradient-4" x1="166.76" y1="15.91" x2="175.17" y2="15.91" xlink:href="#linear-gradient-2"/>
    <linearGradient id="linear-gradient-5" x1="176.2" y1="14.4" x2="184.7" y2="14.4" xlink:href="#linear-gradient-2"/>
    <linearGradient id="linear-gradient-6" x1="185.8" y1="13.54" x2="189.43" y2="13.54" xlink:href="#linear-gradient-2"/>
    <linearGradient id="linear-gradient-7" x1="190.28" y1="15.83" x2="198.78" y2="15.83" xlink:href="#linear-gradient-2"/>
  </defs>
  <g id="Layer_2-2" data-name="Layer 2">
    <path class="cls-8" d="M39.86,12.76c1.46-1.29,2.22-2.97,2.22-5.15,0-3.28-2.63-6.81-6.37-6.81h-11.35l-11.65,10.01L.92.79l-.92-.79v25.71h3.19V6.78l9.49,8.04L25.35,3.9h9.9c1.87,0,3.68,1.74,3.68,3.55s-1.4,4.11-3.68,4.11h-10.98L7.89,25.71h27.7c2.7,0,7.21-2.17,7.21-6.81,0-2.55-.89-4.4-2.95-6.14ZM35.79,22.57h-19.66l9.19-7.91h10.6c1.88,0,3.64,1.76,3.64,3.54,0,2.27-1.5,4.37-3.77,4.37Z"/>
    <g>
      <path class="cls-2" d="M58.06,17.3h-3.2l-1.39-2.97v5.7h-3.09V7.42h3.27l2.9,6.23,2.88-6.23h3.27v12.6h-3.27v-5.7l-1.39,2.97Z"/>
      <path class="cls-2" d="M63.87,15.67c0-2.8,1.46-4.53,3.53-4.53.96,0,1.61.37,2.03,1.04v-.87h3.27v8.71h-3.27v-.85c-.43.67-1.07,1.03-2.02,1.03-2.07,0-3.55-1.73-3.55-4.53ZM69.42,15.67c0-1.36-.37-1.84-1.11-1.84s-1.07.48-1.07,1.84.35,1.84,1.09,1.84,1.09-.48,1.09-1.84Z"/>
      <path class="cls-2" d="M79.5,14.87c-.13-.76-.46-1.04-1-1.04-.76,0-1.15.48-1.15,1.84v4.35h-3.27v-8.71h3.27v.76c.44-.6,1.09-.94,2.03-.94,1.44,0,2.57.87,3.11,2.39l-3,1.35Z"/>
      <path class="cls-2" d="M85.09,6.77c1.04,0,1.89.81,1.89,1.8s-.85,1.81-1.89,1.81-1.89-.81-1.89-1.81.85-1.8,1.89-1.8ZM86.74,11.31v8.71h-3.27v-8.71h3.27Z"/>
      <path class="cls-2" d="M92.4,17.51c.76,0,1.15-.48,1.15-1.84v-4.35h3.27v8.71h-3.27v-.76c-.44.6-1.09.94-2.03.94-2.02,0-3.44-1.73-3.44-4.53v-4.35h3.27v4.35c0,1.36.35,1.84,1.05,1.84Z"/>
      <path class="cls-2" d="M102.44,17.69c.28,0,.52-.09.52-.27,0-1.01-5.01-.27-5.01-3.33,0-1.86,1.79-2.96,4.12-2.96,2.02,0,3.38.83,3.96,2.43l-3.16.74c-.11-.42-.65-.64-1.07-.64-.33,0-.59.12-.59.34,0,1.1,5.03.3,5.03,3.26,0,1.82-1.83,2.94-4.22,2.94-2.05,0-3.44-.83-4.07-2.42l3.16-.74c.11.37.83.66,1.33.66Z"/>
      <path class="cls-2" d="M110.58,20.02V7.42h3.85c3.2,0,4.79,1.45,4.79,3.54,0,1.26-.59,2.18-1.76,2.71,1.41.5,2.13,1.45,2.13,2.81,0,2.09-1.66,3.54-4.97,3.54h-4.03ZM114.43,12.38c.94,0,1.42-.3,1.42-1.13s-.46-1.13-1.42-1.13h-.57v2.27h.57ZM114.61,17.33c1.07,0,1.61-.3,1.61-1.13s-.52-1.13-1.61-1.13h-.76v2.27h.76Z"/>
      <path class="cls-2" d="M120.33,15.67c0-2.8,1.48-4.53,4.42-4.53s4.42,1.74,4.42,4.53-1.46,4.53-4.4,4.53-4.44-1.73-4.44-4.53ZM125.8,15.67c0-1.36-.35-1.84-1.05-1.84s-1.05.48-1.05,1.84.37,1.84,1.07,1.84,1.04-.48,1.04-1.84Z"/>
      <path class="cls-2" d="M132,6.77c1.04,0,1.89.81,1.89,1.8s-.85,1.81-1.89,1.81-1.89-.81-1.89-1.81.85-1.8,1.89-1.8ZM133.65,11.31v8.71h-3.27v-8.71h3.27Z"/>
      <path class="cls-2" d="M141.21,20.06c-.43.11-.89.14-1.39.14-2.9,0-4.49-1.42-4.49-3.96v-2.23h-.48v-2.69h.48v-3.01h3.27v3.01h2.03v2.69h-2.03v2.58c0,.6.41.92,1.22.92.15,0,.3-.02.42-.05l.96,2.6Z"/>
      <path class="cls-2" d="M143.68,6.77c1.04,0,1.89.81,1.89,1.8s-.85,1.81-1.89,1.81-1.89-.81-1.89-1.81.85-1.8,1.89-1.8ZM145.32,11.31v8.71h-3.27v-8.71h3.27Z"/>
    </g>
    <g>
      <path class="cls-1" d="M155.89,16.66c0-.41-.34-.82-.85-1.05-1.71-.85-5.24-.89-5.24-4.5,0-2.12,2.03-3.75,4.64-3.75,2.35,0,3.89,1.19,4.55,3.5l-3.04.75c-.23-1.1-.66-1.55-1.44-1.55-.83,0-1.42.43-1.42,1.03,0,.39.28.76.76,1,1.67.89,5.33.84,5.33,4.52,0,2.12-2.06,3.77-4.71,3.77-2.38,0-3.96-1.19-4.68-3.5l3.04-.75c.25,1.08.73,1.55,1.58,1.55s1.48-.41,1.48-1.01Z"/>
      <path class="cls-4" d="M166.07,20.23c-.41.11-.85.14-1.33.14-2.79,0-4.32-1.42-4.32-3.98v-2.24h-.46v-2.7h.46v-3.02h3.15v3.02h1.96v2.7h-1.96v2.6c0,.6.39.92,1.17.92.14,0,.28-.02.41-.05l.92,2.61Z"/>
      <path class="cls-3" d="M170.92,17.67c.73,0,1.1-.48,1.1-1.85v-4.37h3.15v8.75h-3.15v-.76c-.43.6-1.05.94-1.96.94-1.94,0-3.31-1.74-3.31-4.55v-4.37h3.15v4.37c0,1.37.34,1.85,1.01,1.85Z"/>
      <path class="cls-5" d="M176.2,15.83c0-2.81,1.4-4.55,3.4-4.55.92,0,1.55.37,1.96,1.05v-3.89h3.15v11.77h-3.15v-.85c-.41.68-1.03,1.03-1.94,1.03-1.99,0-3.41-1.74-3.41-4.55ZM181.54,15.83c0-1.37-.36-1.85-1.07-1.85s-1.03.48-1.03,1.85.34,1.85,1.05,1.85,1.05-.48,1.05-1.85Z"/>
      <path class="cls-7" d="M187.61,6.88c1,0,1.81.82,1.81,1.81s-.82,1.81-1.81,1.81-1.81-.82-1.81-1.81.82-1.81,1.81-1.81ZM189.2,11.45v8.75h-3.15v-8.75h3.15Z"/>
      <path class="cls-6" d="M190.28,15.83c0-2.81,1.42-4.55,4.25-4.55s4.25,1.74,4.25,4.55-1.4,4.55-4.23,4.55-4.27-1.74-4.27-4.55ZM195.54,15.83c0-1.37-.34-1.85-1.01-1.85s-1.01.48-1.01,1.85.36,1.85,1.03,1.85,1-.48,1-1.85Z"/>
    </g>
  </g>
</svg>